<svg id="Layer_1" data-name="Layer 1" xmlns="http://www.w3.org/2000/svg" viewBox="0 0 300 300"><defs><style>.cls-1{fill:#e32126;}.cls-2{fill:#ba2025;}.cls-3{fill:#252121;}.cls-4{fill:#f2be8f;}.cls-5{fill:#080809;}.cls-6{fill:#0e0e0e;}.cls-7{fill:#e6312c;}.cls-8{fill:#f4be8f;}.cls-9{fill:#010101;}.cls-10{fill:#3f342e;}.cls-11{fill:#ee706c;}.cls-12{fill:#cfcccb;}.cls-13{fill:#ea5826;}.cls-14{fill:#ea5543;}.cls-15{fill:#2d2625;}.cls-16{fill:#fff;}</style></defs><path class="cls-1" d="M110,161.42q-12.84,0-25.68.05c-.74,0-.78-.33-.77-.89q0-7,0-14.07a20.26,20.26,0,0,1,2.59.22c.84,0,1.76,0,1.51-1.32-.05-.27,0-.34.22-.47,1.33-1,1.34-1.15.35-2.35.71-.2,1.63-.22,1.75-1.12.14-1.14-1-1.21-1.7-1.63q1.52-2.15-1-2.55c-1.22-.2-2.45-.33-3.68-.49V125.4l26.17,4.73a2.33,2.33,0,0,1,.25,1.44Q110,146.5,110,161.42Z"/><path class="cls-2" d="M139.18,146c0,4.9,0,9.79,0,14.68,0,.6-.17.77-.77.77q-12.84,0-25.68-.06c0-1.23,0-2.46,0-3.68q0-5.47,0-10.94V145.5c0-2,0-4,0-6,0-.47.21-1-.24-1.39a7,7,0,0,0,.26-2.32,35.67,35.67,0,0,1,0-5.47c3.27-.63,6.54-1.29,9.82-1.89,5.45-1,10.9-1.95,16.35-2.93a1.37,1.37,0,0,1,.3,0v10.81l-2.69.46v-6.64c-6.52,1.13-12.86,2.24-19.2,3.31-.77.13-1,.4-1,1.19.06,1.44,0,2.9,0,4.35s0,1.45,1.44,1.19q8.63-1.57,17.27-3.12c-.59.8-.72,1.57.33,2.22-.85.49-2,.55-1.84,1.71.11.94,1.06.89,1.75,1.11-1,1.18-1,1.35.35,2.35.18.14.29.19.22.46-.31,1.2.54,1.33,1.37,1.33A14.81,14.81,0,0,0,139.18,146Z"/><path class="cls-3" d="M92.11,122.49c-1.47-10.59,4.21-19.38,14.82-21.56a22.85,22.85,0,0,1,15.22,1.7c5.47,2.75,8.31,7.33,9.09,13.3a19.13,19.13,0,0,1-.05,6.18c-2.14-.87-3.2-.45-4.12,1.68a10.45,10.45,0,0,1-1.16,2.46c-.2.26-.44.62-.78.5-.19-.06-.29-.46-.37-.73a12.39,12.39,0,0,1-.32-3.33c0-3.49-1.83-5.71-4.93-7.07a62.82,62.82,0,0,0-6.05-2.25,22.15,22.15,0,0,0-9.79-1.23c-3,.42-4.46,1.63-5.19,4.55a46.81,46.81,0,0,0-1.21,10.15c-1-.28-1.23-1.09-1.53-1.84C94.94,123,93.89,122.32,92.11,122.49Z"/><path class="cls-4" d="M92.11,122.49c1.78-.17,2.83.55,3.63,2.51.3.75.53,1.56,1.53,1.84a46.81,46.81,0,0,1,1.21-10.15c.73-2.92,2.22-4.13,5.19-4.55a22.15,22.15,0,0,1,9.79,1.23,62.82,62.82,0,0,1,6.05,2.25c3.1,1.36,4.9,3.58,4.93,7.07a12.39,12.39,0,0,0,.32,3.33c.08.27.18.67.37.73.34.12.58-.24.78-.5a10.45,10.45,0,0,0,1.16-2.46c.92-2.13,2-2.55,4.12-1.68a5.33,5.33,0,0,1,1.5,2.53c.17.82-.06,1.3-1,1.46-6,1-12,2.13-17.94,3.19a10.18,10.18,0,0,1-1.11.07c-.34-.47-.85-.2-1.27-.3-.79-.2-1.41-.57-1.36-1.5a1.46,1.46,0,0,1,1.42-1.45c.32,0,.91.24.83-.37s-.66-.4-1-.36c-1.82.19-2.46,2.07-1.35,3.9a42.7,42.7,0,0,1-6.46-1c-3.62-.57-7.21-1.29-10.82-1.94-2-.37-2.34-1.21-1-2.9C91.79,123.17,92.35,123,92.11,122.49Zm15.87.29a2.11,2.11,0,0,0-1.84-2.13,2,2,0,0,0-1.83,2,2,2,0,0,0,1.74,2.2A2.07,2.07,0,0,0,108,122.78Zm9.39-2A2,2,0,0,0,115.6,123a1.83,1.83,0,1,0,3.65-.11A1.94,1.94,0,0,0,117.37,120.83Zm-8.26-2.28a5,5,0,0,0-.32-.58,3,3,0,0,0-3.05-1.28,3.33,3.33,0,0,0-2.81,2.17c-.11.29-.21.58.17.72s.39-.19.52-.4c1.4-2.23,2.81-2.37,4.72-.47.16.15.32.32.53.23S109,118.69,109.11,118.55Zm8.22-1.89a3.52,3.52,0,0,0-2.66,1.41c-.19.26-.45.59-.08.85s.48-.17.66-.37c1.61-1.68,3.53-1.45,4.62.55.12.23.14.64.56.47s.23-.45.15-.73A3.27,3.27,0,0,0,117.33,116.66Z"/><path class="cls-5" d="M197.36,127.58c0-2.49.07-4.84,0-7.18-.06-1.13.51-1.07,1.25-1s1.43-.27,1.42,1c-.07,6,0,11.94-.05,17.91,0,.34.29,1-.37,1s-1.59.51-1.89-.55c-.22-.75-.45-.68-1-.27-3,2.35-8.11,1.19-9.51-3.63a6.92,6.92,0,0,1,3.27-8.18A5.92,5.92,0,0,1,197.36,127.58Zm-7.76,5.18c0,2.4,1.51,4.36,3.52,4.54s3.69-1.11,4.17-3.39-.47-4.63-2.15-5.31C192.31,127.46,189.61,129.49,189.6,132.76Z"/><path class="cls-6" d="M159.68,122.56a7.37,7.37,0,0,0-.92.6c-.75.66-1.33.64-2.19,0a4.58,4.58,0,0,0-5-.49,2.36,2.36,0,0,0-1.47,2.24,2.18,2.18,0,0,0,1.3,2.07,13.61,13.61,0,0,0,3.13,1.12,15.34,15.34,0,0,1,2.78,1,5,5,0,0,1,3.18,5,5.21,5.21,0,0,1-3.34,4.78,8.65,8.65,0,0,1-9.42-1.68c-.29-.31-1.1-.81-.45-1.17s1.37-1.56,2.41-.59c1.84,1.73,4,1.75,6.25,1.14a2.35,2.35,0,0,0,1.76-2.16,2.45,2.45,0,0,0-1.34-2.68,17.27,17.27,0,0,0-3.83-1.35,11.5,11.5,0,0,1-2.4-.94,4.69,4.69,0,0,1-2.76-4.83,4.89,4.89,0,0,1,3.64-4.5A7.88,7.88,0,0,1,159.68,122.56Z"/><path class="cls-6" d="M214.88,134.76c1.14-2.45,2.24-4.66,3.19-6.93.49-1.18,1.14-1.8,2.46-1.56a7.29,7.29,0,0,0,1.17,0l-3.11,6.7c-1.55,3.36-3.15,6.69-4.6,10.09-.5,1.18-1.14,1.67-2.37,1.46a9,9,0,0,0-1.19,0c.86-1.93,1.63-3.77,2.51-5.55a2.29,2.29,0,0,0,0-2.29c-1.57-3.12-3-6.3-4.55-9.44-.35-.71-.37-.94.57-1a2.3,2.3,0,0,1,2.7,1.61C212.52,130.15,213.71,132.32,214.88,134.76Z"/><path class="cls-7" d="M112.74,145.5v1.29c-.34.29-.22.69-.22,1,0,3.3,0,6.6,0,9.9l0,3.68H110q0-14.92,0-29.85a2.33,2.33,0,0,0-.25-1.44,15.53,15.53,0,0,1,3,.15,35.67,35.67,0,0,0,0,5.47,7,7,0,0,1-.26,2.32c0,1.68,0,3.36,0,5C112.55,143.91,112.28,144.74,112.74,145.5Z"/><path class="cls-6" d="M184.35,132.89c0,1.78,0,3.57,0,5.35,0,.35.3,1-.32,1s-1.49.5-1.89-.33-.64-.66-1.25-.25a5.11,5.11,0,0,1-5.52.22,4.79,4.79,0,0,1-2.44-4.57c0-2.4,0-4.81,0-7.21,0-1.1.65-.85,1.2-.81s1.38-.44,1.34.79c-.07,2.37,0,4.73,0,7.1a2.84,2.84,0,0,0,3,3.08,3.22,3.22,0,0,0,3.3-3.14c-.1-2.32,0-4.65,0-7,0-1.18.72-.88,1.3-.86s1.48-.43,1.43.87C184.29,129.07,184.35,131,184.35,132.89Z"/><path class="cls-8" d="M83.6,136.8c1.23.16,2.46.29,3.68.49q2.53.41,1,2.55c.7.42,1.84.49,1.7,1.63-.12.9-1,.92-1.75,1.12,1,1.2,1,1.33-.35,2.35-.18.13-.27.2-.22.47.25,1.27-.67,1.33-1.51,1.32a20.26,20.26,0,0,0-2.59-.22c-.27-.4-.78-.17-1.13-.41s-.75-.53-.59-.7c1-1-1.08-2.06,0-3a4.84,4.84,0,0,1,.94-.47c-.37-.42-1.09-.51-1.25-1.17s.53-1,1-1.49c-.65-.42-1.31-.88-1-1.69S82.86,136.83,83.6,136.8Z"/><path class="cls-8" d="M136.52,136.77l2.69-.46H140c.82,0,1.67,0,2,.92s-.52,1.17-1.2,1.55c.56.4,1.35.52,1.23,1.31-.14,1-1,1-1.76,1.34a7.39,7.39,0,0,1,1.21.32c.58.28.82.82.4,1.32a1.09,1.09,0,0,0-.15,1.53c.34.56-.34,1-.87,1.11a13.79,13.79,0,0,1-1.58.31,14.81,14.81,0,0,1-2,.21c-.83,0-1.68-.13-1.37-1.33.07-.27,0-.32-.22-.46-1.34-1-1.36-1.17-.35-2.35-.69-.22-1.64-.17-1.75-1.11-.15-1.16,1-1.22,1.84-1.71-1.05-.65-.92-1.42-.33-2.22Z"/><path class="cls-6" d="M169.08,126.28c.62.15,1.71-.53,1.63,1.09-.05,1.06-.32,1.28-1.32,1.24-2.24-.07-2.24,0-2.24,2.22,0,1.58,0,3.16,0,4.73s.58,2.16,2.14,1.87c1.27-.22.89.74,1.13,1.25.38.82-.4.76-.76.84-3.16.7-4.78-.37-5.09-3.6a56.1,56.1,0,0,1-.09-6.22c0-.78-.06-1.28-1-1.12-.37,0-.92.17-.81-.54.08-.54-.37-1.34.66-1.45a1.16,1.16,0,0,0,1.17-1.56c-.05-.28,0-.58,0-.87-.21-1.16.29-1.44,1.41-1.42s1.49.2,1.28,1.28a2.29,2.29,0,0,0,0,.37C167.15,126.28,167.15,126.28,169.08,126.28Z"/><path class="cls-9" d="M203.52,129.34c0-3,.06-6,0-9.06,0-1.14.63-.93,1.25-.89s1.39-.4,1.38.87q-.09,9.06,0,18.13c0,1.14-.63.93-1.24.89s-1.42.41-1.39-.87C203.58,135.39,203.52,132.36,203.52,129.34Z"/><path class="cls-10" d="M109.88,129.28c-1.11-1.83-.47-3.71,1.35-3.9.38,0,1-.18,1,.36s-.51.32-.83.37a1.46,1.46,0,0,0-1.42,1.45c0,.93.57,1.3,1.36,1.5.42.1.93-.17,1.27.3A3,3,0,0,1,109.88,129.28Z"/><path class="cls-11" d="M112.49,161.41l0-3.68h.21c0,1.22,0,2.45,0,3.68Z"/><path class="cls-12" d="M136.52,136.77l-1.49.28q-8.64,1.56-17.27,3.12c-1.44.26-1.44.28-1.44-1.19s.05-2.91,0-4.35c0-.79.24-1.06,1-1.19,6.34-1.07,12.68-2.18,19.2-3.31Z"/><path class="cls-13" d="M112.73,157.73h-.21c0-3.3,0-6.6,0-9.9,0-.35-.12-.75.22-1Q112.73,152.25,112.73,157.73Z"/><path class="cls-14" d="M112.74,145.5c-.46-.76-.19-1.59-.21-2.39,0-1.68,0-3.36,0-5,.45.4.24.92.24,1.39C112.77,141.48,112.75,143.49,112.74,145.5Z"/><path class="cls-15" d="M108,122.78a2.07,2.07,0,0,1-1.93,2,2,2,0,0,1-1.74-2.2,2,2,0,0,1,1.83-2A2.11,2.11,0,0,1,108,122.78Z"/><path class="cls-15" d="M117.37,120.83a1.94,1.94,0,0,1,1.88,2,1.83,1.83,0,1,1-3.65.11A2,2,0,0,1,117.37,120.83Z"/><path class="cls-10" d="M109.11,118.55c-.08.14-.13.34-.24.39s-.37-.08-.53-.23c-1.91-1.9-3.32-1.76-4.72.47-.13.21-.19.52-.52.4s-.28-.43-.17-.72a3.33,3.33,0,0,1,2.81-2.17,3,3,0,0,1,3.05,1.28A5,5,0,0,1,109.11,118.55Z"/><path class="cls-10" d="M117.33,116.66a3.27,3.27,0,0,1,3.25,2.18c.08.28.22.58-.15.73s-.44-.24-.56-.47c-1.09-2-3-2.23-4.62-.55-.18.2-.32.6-.66.37s-.11-.59.08-.85A3.52,3.52,0,0,1,117.33,116.66Z"/><path class="cls-16" d="M189.6,132.76c0-3.27,2.71-5.3,5.54-4.16,1.68.68,2.63,3,2.15,5.31s-2.08,3.58-4.17,3.39S189.6,135.16,189.6,132.76Z"/></svg>