<svg id="Layer_1" data-name="Layer 1" xmlns="http://www.w3.org/2000/svg" viewBox="0 0 300 300"><defs><style>.cls-1{fill:#e32126;}.cls-2{fill:#ba2026;}.cls-3{fill:#252122;}.cls-4{fill:#f2be8f;}.cls-5{fill:#e6312c;}.cls-6{fill:#f4be8f;}.cls-7{fill:#f3be8e;}.cls-8{fill:#352d2a;}.cls-9{fill:#cfcccb;}.cls-10{fill:#ea5826;}.cls-11{fill:#ea5543;}.cls-12{fill:#2d2625;}.cls-13{fill:#3f342e;}.cls-14{fill:#3f342f;}</style></defs><path class="cls-1" d="M147.87,215.16q-30.75,0-61.51.13c-1.76,0-1.85-.79-1.85-2.15,0-11.25,0-22.51.06-33.76,2.1-.23,4.13.48,6.19.51s4.23-.11,3.62-3.16c-.12-.64.09-.8.52-1.13,3.19-2.44,3.22-2.75.82-5.68,1.76-.38,3.93-.52,4.22-2.65.36-2.73-2.4-2.9-4.06-3.89,2.41-3.46,1.6-5.48-2.45-6.14-2.92-.48-5.87-.79-8.81-1.17V128.71l62.67,11.34c.74,1.07.59,2.28.59,3.47Q147.87,179.34,147.87,215.16Z"/><path class="cls-2" d="M154.39,140.43c7.74-2,15.69-3,23.53-4.51,13-2.49,26.1-4.72,39.15-7a3.19,3.19,0,0,1,.7.08v26L211.33,156v-16c-15.67,2.73-30.92,5.42-46.18,8-1.75.29-2.27,1-2.21,2.69a98.47,98.47,0,0,1,0,10.73c-.22,2.92.81,3.23,3.38,2.74,13.75-2.58,27.53-5,41.3-7.48-1.57,2.14-.84,4,1,5.63-2.16.56-4.45.93-4.41,3.47s2.51,2.36,4.21,2.95c-2.4,2.78-2.32,3.61.56,5.52.45.3,1.06.27.8,1.22-.76,2.85,1.29,3.17,3.28,3.18a38,38,0,0,0,4.72-.5c0,11.75,0,23.49.11,35.24,0,1.45-.44,1.84-1.86,1.83q-30.75-.1-61.5-.12,0-4.46-.05-8.91l0-26.21c0-1,0-2,0-3.08,0-4.83.07-9.67,0-14.5,0-1.13.49-2.39-.58-3.35a16.83,16.83,0,0,0,.61-5.56C154.47,149.18,153.72,144.81,154.39,140.43Z"/><path class="cls-3" d="M105,121.71c-3.8-27.49,12.44-48.78,39.27-52.38,12.39-1.67,24.37-.36,35.26,6.12,10.24,6.08,16.4,15.23,18.56,27,1.11,6.09,1.7,12.2.48,18.35-5.13-2.09-7.66-1.07-9.85,4-.86,2-1.44,4.14-2.79,5.9-.47.62-1.06,1.47-1.87,1.2-.44-.14-.7-1.11-.88-1.75a29.9,29.9,0,0,1-.77-8c-.08-8.37-4.38-13.7-11.8-17a139.43,139.43,0,0,0-14.49-5.41c-7.61-2.41-15.34-4.09-23.44-3-7.11,1-10.67,3.89-12.43,10.91A110.86,110.86,0,0,0,117.37,132c-2.32-.92-2.32-.92-3.68-4.22C111.77,123.06,109.27,121.32,105,121.71Z"/><path class="cls-4" d="M105,121.71c4.27-.39,6.77,1.35,8.69,6,1.36,3.3,1.36,3.3,3.68,4.22a110.86,110.86,0,0,1,2.88-24.18c1.76-7,5.32-9.91,12.43-10.91,8.1-1.14,15.83.54,23.44,3a139.43,139.43,0,0,1,14.49,5.41c7.42,3.26,11.72,8.59,11.8,17a29.9,29.9,0,0,0,.77,8c.18.64.44,1.61.88,1.75.81.27,1.4-.58,1.87-1.2,1.35-1.76,1.93-3.9,2.79-5.9,2.19-5.11,4.72-6.13,9.85-4a12.63,12.63,0,0,1,3.6,6.07c.4,2-.14,3.12-2.38,3.51-14.23,2.48-28.45,5.06-42.68,7.59a29.23,29.23,0,0,1-3,.23c-.8-1.14-2-.47-3-.72-1.89-.47-3.38-1.35-3.26-3.58s1.36-3.18,3.39-3.51c.75-.12,2.18.58,2-.86-.14-1.29-1.58-1-2.49-.86-4.35.43-5.89,4.94-3.23,9.34-5.27,0-10.32-1.54-15.46-2.35-8.67-1.37-17.27-3.1-25.91-4.66-4.91-.88-5.62-2.9-2.49-7C104.22,123.35,105.57,123,105,121.71Zm38,.55c0-2.57-2.27-5-4.56-5s-4.19,2.27-4.25,4.88,2,5.1,4.31,5.13S143,124.86,143,122.26Zm22.59-4.51a4.7,4.7,0,0,0-4.36,5c.06,2.68,1.88,4.74,4.25,4.8a4.58,4.58,0,0,0,4.5-4.83C170,120,168.06,117.75,165.6,117.75Zm-26.25-10c-4.08,0-7.29,2.17-8.36,5.11-.23.65-.68,1.37.14,1.84s1.1-.36,1.46-.94c3.15-5.2,7.16-5.64,11.17-1.24.41.46.84,1.06,1.43.68.74-.47.43-1.27.05-1.86A7.3,7.3,0,0,0,139.35,107.7Zm26,0a8.54,8.54,0,0,0-6.22,3.22c-.46.6-1.21,1.36-.45,2.07,1,.89,1.29-.31,1.77-.82,3.76-4,8.37-3.37,11,1.48.32.58.41,1.5,1.4,1s.45-1.15.25-1.81C172.24,109.87,169,107.66,165.36,107.72Z"/><path class="cls-5" d="M154.4,177c0,1,0,2.06,0,3.08-.12.15-.34.3-.35.46-.28,8.44-.3,16.87,0,25.3,0,.16.24.3.37.45q0,4.45.05,8.91h-6.59q0-35.82,0-71.64c0-1.19.15-2.4-.59-3.47,2.36.24,4.76-.34,7.1.38-.67,4.38.08,8.75.07,13.12a16.83,16.83,0,0,1-.61,5.56c0,4-.08,8.07,0,12.11C153.94,173.13,153.29,175.13,154.4,177Z"/><path class="cls-6" d="M84.62,156.07c2.94.38,5.89.69,8.81,1.17,4,.66,4.86,2.68,2.45,6.14,1.66,1,4.42,1.16,4.06,3.89-.29,2.13-2.46,2.27-4.22,2.65,2.4,2.93,2.37,3.24-.82,5.68-.43.33-.64.49-.52,1.13.61,3.05-1.59,3.19-3.62,3.16s-4.09-.74-6.19-.51c-.75-1-2.09-.41-3-1.13-.56-.46-1.49-1.18-1.15-1.54,2.29-2.46-2.23-4.72-.12-7a10.89,10.89,0,0,1,2.13-1.44c-3.61-2.9-3.66-3.59-.5-6,.1-.65-.43-.82-.82-1.08a2.67,2.67,0,0,1-1.3-3.06c.41-1.46,1.65-1.87,3-2C83.42,156.06,84,156.09,84.62,156.07Z"/><path class="cls-7" d="M211.33,156l6.44-1.11c.59,0,1.18,0,1.78,0,1.95-.09,4-.07,4.66,2.2s-1.36,2.95-3.43,3.81c1.68.81,3.65.92,3.52,2.9-.14,2.19-2.14,2.59-3.9,3.31,4.31,1.09,4.58,1.74,2.33,5.36-.2.32-.35.47-.14,1,1.38,3.06,1,3.64-2.28,4.2-.88.14-1.73.38-2.6.58a38,38,0,0,1-4.72.5c-2,0-4-.33-3.28-3.18.26-.95-.35-.92-.8-1.22-2.88-1.91-3-2.74-.56-5.52-1.7-.59-4.18-.44-4.21-2.95s2.25-2.91,4.41-3.47c-1.8-1.65-2.53-3.49-1-5.63Z"/><path class="cls-8" d="M147.55,138c-2.66-4.4-1.12-8.91,3.23-9.34.91-.1,2.35-.43,2.49.86.16,1.44-1.27.74-2,.86-2,.33-3.27,1.42-3.39,3.51s1.37,3.11,3.26,3.58c1,.25,2.22-.42,3,.72C151.91,139.4,149.72,139,147.55,138Z"/><path class="cls-9" d="M211.33,156l-3.74.73c-13.77,2.48-27.55,4.9-41.3,7.48-2.57.49-3.6.18-3.38-2.74a98.47,98.47,0,0,0,0-10.73c-.06-1.73.46-2.4,2.21-2.69,15.26-2.59,30.51-5.28,46.18-8Z"/><path class="cls-10" d="M154.41,206.25c-.13-.15-.36-.29-.37-.45-.31-8.43-.29-16.86,0-25.3,0-.16.23-.31.35-.46Z"/><path class="cls-11" d="M154.4,177c-1.11-1.83-.46-3.83-.51-5.74-.12-4,0-8.08,0-12.11,1.07,1,.57,2.22.58,3.35C154.47,167.29,154.42,172.13,154.4,177Z"/><path class="cls-12" d="M143,122.26c0,2.6-2.2,5.08-4.5,5s-4.37-2.43-4.31-5.13,2-4.82,4.25-4.88S143,119.69,143,122.26Z"/><path class="cls-12" d="M165.6,117.75c2.46,0,4.4,2.2,4.39,5a4.58,4.58,0,0,1-4.5,4.83c-2.37-.06-4.19-2.12-4.25-4.8A4.7,4.7,0,0,1,165.6,117.75Z"/><path class="cls-13" d="M139.35,107.7a7.3,7.3,0,0,1,5.89,3.59c.38.59.69,1.39-.05,1.86-.59.38-1-.22-1.43-.68-4-4.4-8-4-11.17,1.24-.36.58-.53,1.46-1.46.94s-.37-1.19-.14-1.84C132.06,109.87,135.27,107.74,139.35,107.7Z"/><path class="cls-14" d="M165.36,107.72c3.66-.06,6.88,2.15,7.78,5.15.2.66.59,1.38-.25,1.81s-1.08-.43-1.4-1c-2.66-4.85-7.27-5.46-11-1.48-.48.51-.81,1.71-1.77.82-.76-.71,0-1.47.45-2.07A8.54,8.54,0,0,1,165.36,107.72Z"/></svg>